HIERARCHY
ROOT Hips
{
  OFFSET 90.7885 88.945 -76.2838
  CHANNELS 6 Xposition Yposition Zposition Zrotation Xrotation Yrotation
  JOINT LeftUpLeg
  {
    OFFSET 8.64259 1.95398 -2.38835
    CHANNELS 3 Zrotation Xrotation Yrotation
    JOINT LeftLeg
    {
      OFFSET 43.7702 0 0
      CHANNELS 3 Zrotation Xrotation Yrotation
      JOINT LeftFoot
      {
        OFFSET 40.6238 0 0
        CHANNELS 3 Zrotation Xrotation Yrotation
        JOINT LeftToeBase
        {
          OFFSET 12.7242 0 0
          CHANNELS 3 Zrotation Xrotation Yrotation
          End Site
          {
            OFFSET 0 0 0
          }
        }
      }
    }
  }
  JOINT RightUpLeg
  {
    OFFSET -8.2249 1.95398 -2.59336
    CHANNELS 3 Zrotation Xrotation Yrotation
    JOINT RightLeg
    {
      OFFSET 43.5653 0 0
      CHANNELS 3 Zrotation Xrotation Yrotation
      JOINT RightFoot
      {
        OFFSET 40.6238 0 0
        CHANNELS 3 Zrotation Xrotation Yrotation
        JOINT RightToeBase
        {
          OFFSET 12.7242 0 0
          CHANNELS 3 Zrotation Xrotation Yrotation
          End Site
          {
            OFFSET 0 0 0
          }
        }
      }
    }
  }
  JOINT Spine
  {
    OFFSET 0.165834 0.87714 6.61349
    CHANNELS 3 Zrotation Xrotation Yrotation
    JOINT Spine1
    {
      OFFSET 7.38963 1.71661e-005 0
      CHANNELS 3 Zrotation Xrotation Yrotation
      JOINT Spine2
      {
        OFFSET 11.9445 1.14441e-005 0
        CHANNELS 3 Zrotation Xrotation Yrotation
        JOINT Spine3
        {
          OFFSET 14.7254 4.19617e-005 0
          CHANNELS 3 Zrotation Xrotation Yrotation
          JOINT Spine4
          {
            OFFSET 10.9679 0 0
            CHANNELS 3 Zrotation Xrotation Yrotation
            JOINT RightShoulder
            {
              OFFSET 2.46616 -1.6653 3.69651
              CHANNELS 3 Zrotation Xrotation Yrotation
              JOINT RightArm
              {
                OFFSET 13.0012 0 0
                CHANNELS 3 Zrotation Xrotation Yrotation
                JOINT RightForeArm
                {
                  OFFSET 28.7848 1.52588e-005 0
                  CHANNELS 3 Zrotation Xrotation Yrotation
                  JOINT RightHand
                  {
                    OFFSET 26.5688 1.52588e-005 0
                    CHANNELS 3 Zrotation Xrotation Yrotation
                    End Site
                    {
                      OFFSET 0 0 0
                    }
                  }
                }
              }
            }
            JOINT LeftShoulder
            {
              OFFSET 2.38034 -1.29275 -3.7523
              CHANNELS 3 Zrotation Xrotation Yrotation
              JOINT LeftArm
              {
                OFFSET 16.3182 6.10352e-005 0
                CHANNELS 3 Zrotation Xrotation Yrotation
                JOINT LeftForeArm
                {
                  OFFSET 27.0901 0 0
                  CHANNELS 3 Zrotation Xrotation Yrotation
                  JOINT LeftHand
                  {
                    OFFSET 24.5451 1.52588e-005 0
                    CHANNELS 3 Zrotation Xrotation Yrotation
                    End Site
                    {
                      OFFSET 0 0 0
                    }
                  }
                }
              }
            }
            JOINT Neck
            {
              OFFSET 5.0226 -0.0266342 0
              CHANNELS 3 Zrotation Xrotation Yrotation
              JOINT Head
              {
                OFFSET 6.69363 2.86102e-005 0
                CHANNELS 3 Zrotation Xrotation Yrotation
                End Site
                {
                  OFFSET 0 0 0
                }
              }
            }
          }
        }
      }
    }
  }
}
MOTION
Frames:	16
Frame Time:	0.0416667
-206.505 92.2221 190.723 -96.7465 -43.2218 -95.3702 -177.96 25.9569 91.6404 -22.1454 8.9009 -1.53737 64.5532 2.41101 -0.364706 9.41101 -1.53862 4.42581 173.888 -4.12442 87.8925 -31.4203 -21.6528 -4.46022 86.6871 -14.008 -2.07364 26.2901 -2.65817 6.4856 1.20081 7.5975 -90.1411 11.6863 2.3223 -0.524197 0.0172863 2.29701 -0.625952 -22.5345 2.3724 0.19839 -2.52189 2.37243 0.198388 91.6219 -25.5143 -105.147 33.8739 -11.2986 -8.76823 0.274738 -25.4598 -20.6044 -25.981 -0.485462 -9.04628 -85.676 -62.6306 86.815 -11.2299 8.87023 -0.854015 4.00727 -9.77085 -19.7378 -0.426649 -0.0996504 -4.90691 -2.5029 -1.22614 4.45327 -11.6071 -1.01108 -8.75347 
-202.558 93.633 184.979 -99.7146 -48.5469 -98.9411 -175.819 26.3669 89.5892 -35.0616 -1.30617 -2.72323 67.9681 3.97448 -1.15463 8.38513 -0.370133 3.32715 173.063 -0.904452 88.4408 -31.9781 -18.186 -3.31248 82.8154 -11.6776 -2.3588 24.6613 -2.193 5.60591 0.274243 7.89459 -90.3146 11.0857 0.400012 -0.664111 -0.585326 0.370399 -0.681084 -23.1202 0.581099 -0.513187 -3.1075 0.581113 -0.513183 91.549 -26.5181 -104.919 34.2721 -8.55632 -4.10676 0.498239 -21.4823 -20.1849 -27.6189 -0.328755 -8.49838 -87.9777 -56.4377 82.8578 -11.2245 8.88087 -10.989 8.35194 -0.0165679 -23.6536 1.23853 -0.147517 -6.32556 -4.89918 0.512916 2.52192 -9.65461 0.336452 -1.14482 
-199.298 94.5372 180.661 -100.592 -50.6012 -100.074 -173.55 25.2804 89.8235 -55.4748 7.15281 -0.553994 67.1541 3.76725 0.96416 6.85086 1.5944 1.52417 172.43 2.10726 88.4033 -31.3275 -18.0336 -2.61367 78.8325 -9.33231 -2.20195 24.0498 -2.17047 5.61294 -0.258951 7.897 -90.5386 11.0754 -0.765287 -0.99649 -0.595682 -0.808393 -0.96186 -23.1288 -0.43043 -1.1804 -3.11613 -0.430422 -1.1804 92.0116 -28.0416 -103.408 35.4851 -6.09482 1.1587 1.6177 -19.0035 -18.012 -25.7064 -0.531832 -6.96622 -87.7042 -51.1392 82.3649 -11.4729 9.26464 -21.4263 10.069 2.63156 -26.4926 0.723638 -0.221077 -9.09126 -7.66212 1.77234 2.03909 -10.3096 1.46756 2.17485 
-196.264 94.6666 177.231 -101.067 -49.6038 -99.6362 -172.802 16.1192 92.0937 -64.0906 11.0106 2.08857 64.7411 2.82145 1.58061 8.86232 1.8017 1.0276 172.861 5.34381 89.3548 -31.9447 -18.8784 -2.33991 76.3782 -8.15151 -2.38386 23.1144 -2.37609 6.13287 -0.453651 7.86615 -90.7785 11.132 -1.26449 -1.42744 -0.539011 -1.32611 -1.37041 -23.0702 -0.777112 -1.7414 -3.05758 -0.777116 -1.74141 93.2177 -28.7757 -100.688 38.1602 -6.46508 4.01913 5.08368 -14.9889 -11.9984 -25.5617 -0.391716 -6.643 -87.9651 -48.7715 81.5519 -14.1992 5.20303 -28.9084 12.0673 4.10711 -26.1066 1.17095 -0.300059 -11.1467 -9.19005 2.78842 2.33656 -10.6128 2.36221 3.94154 
-193.234 94.5819 174.308 -101.66 -46.9953 -99.0687 -172.081 1.92007 95.3164 -57.7783 18.5985 3.13021 62.9669 2.07526 -0.387307 12.3998 1.5609 0.744346 173.363 8.23302 89.8932 -33.0703 -21.3051 -2.23277 73.6745 -6.85408 -2.15499 22.2395 -2.36174 6.17399 -0.837999 7.73306 -90.9298 11.3908 -2.1011 -1.64034 -0.279389 -2.17124 -1.54628 -22.8142 -1.5111 -2.19586 -2.80155 -1.51108 -2.19586 91.9414 -28.7657 -103.302 41.2732 -6.57634 7.65492 6.51691 -15.4094 -8.41064 -24.6165 -0.584293 -5.83936 -87.2735 -48.9601 82.6375 -20.189 0.826614 -28.0755 14.2426 4.74056 -27.3893 1.08684 -0.255739 -9.83693 -11.6939 4.76393 5.16969 -10.5465 4.32399 3.78569 
-189.247 93.9506 170.669 -101.004 -45.3464 -98.555 -171.165 -8.24606 95.2995 -45.7346 23.0342 1.92178 67.7501 3.86669 -1.49197 16.2136 0.598596 1.31426 175.13 13.5662 90.4254 -35.6688 -22.2327 -3.07825 70.5778 -5.47431 -2.41358 22.5143 -2.09314 5.60151 -1.16326 7.64835 -90.9569 11.5566 -2.76186 -1.62293 -0.112309 -2.83062 -1.49976 -22.6549 -2.14655 -2.37798 -2.64223 -2.14654 -2.37798 92.6511 -28.9883 -101.781 43.3271 -6.62779 8.03492 6.42494 -16.1065 -9.92738 -22.7185 -0.197583 -8.25826 -87.8554 -51.0778 82.1324 -19.0841 4.03807 -24.7859 10.1341 -1.44562 -27.869 -0.879501 -0.182223 -11.5698 -12.1546 6.26374 6.99958 -11.0708 5.71793 4.59185 
-183.291 93.165 165.435 -101.234 -46.4673 -99.4299 -170.462 -9.72514 95.3569 -37.8522 22.7129 -0.395099 72.7377 5.87546 -1.10361 33.7022 1.76084 -4.45169 175.79 18.8121 89.7483 -34.9911 -21.1609 -3.36978 65.3804 -2.87968 -1.44225 22.1753 -1.95315 5.35306 -1.52404 7.7937 -90.8211 11.2678 -3.41505 -1.29596 -0.399125 -3.46877 -1.14426 -22.9563 -2.86767 -2.26293 -2.94365 -2.86766 -2.26293 92.8821 -30.0024 -101.002 44.9331 -5.8074 6.27927 3.60826 -15.651 -14.8897 -23.4928 0.100352 -9.58899 -88.4932 -51.0098 81.1707 -17.531 8.87735 -23.9666 8.94611 -0.101617 -24.3916 -1.85836 -0.121665 -12.1898 -10.8488 6.9004 6.32345 -11.3471 6.25125 5.17959 
-175.973 92.8516 159.049 -101.797 -47.3974 -101.152 -171.129 -6.35897 93.4734 -36.1225 21.4235 -2.2792 80.9974 9.14702 -1.80595 32.5062 2.47303 -4.6986 175.557 21.162 88.0344 -26.7182 -21.2194 -3.3827 56.3563 1.1542 0.240283 23.935 -1.27225 3.72432 -1.4711 8.05235 -90.4636 10.7634 -3.14309 -0.631502 -0.903795 -3.16783 -0.492428 -23.4634 -2.80792 -1.54759 -3.4507 -2.80789 -1.54759 92.3919 -31.9234 -101.404 43.9551 -6.81129 3.80104 1.39773 -18.3867 -19.5344 -25.2154 0.108835 -10.1444 -88.8357 -49.2418 80.3214 -15.6839 13.2309 -25.9929 7.37598 4.59446 -15.4634 -2.93651 -0.0689175 -9.8958 -9.39289 5.95158 1.00234 -10.8102 5.39697 6.90041 
-169.318 93.3186 152.904 -101.942 -46.8937 -103.156 -172.602 -2.50546 90.0498 -34.3574 19.0434 -3.78985 84.6958 10.5473 -2.34281 19.9318 1.21578 -0.085099 172.788 20.9686 85.8067 -18.4268 -8.77255 -1.61964 60.9313 -1.14021 -0.33038 19.5132 -1.358 4.45658 -1.11457 8.2969 -90.0262 10.2829 -2.23256 0.140165 -1.38613 -2.2242 0.23833 -23.9361 -2.1714 -0.537618 -3.92346 -2.17141 -0.537622 91.6459 -33.3246 -102.421 40.4406 -8.60139 -0.0811698 2.02416 -19.9949 -18.1642 -26.1199 -0.351425 -8.11581 -88.8266 -49.6517 80.4158 -13.2057 16.1423 -23.3779 5.26388 7.55275 -10.8817 -4.01661 -0.0219442 -9.14697 -9.68113 4.03389 -2.92938 -8.58389 3.8808 5.81628 
-164.155 95.2816 147.961 -101.505 -45.2276 -101.027 -173.513 1.03762 89.814 -31.8464 17.7724 -3.83996 79.6753 8.87418 0.0535059 13.2864 -1.09095 3.56512 169.694 19.4813 86.3298 -21.2315 2.79606 1.53156 60.0248 -0.949122 -0.55596 20.3175 -0.787434 3.24057 -0.286734 8.32978 -90.0783 10.2138 -0.606783 -0.103642 -1.45699 -0.610756 -0.0768444 -23.993 -0.547587 -0.281224 -3.98036 -0.547589 -0.281231 90.6154 -31.3516 -105.055 40.3315 -8.10159 -0.177095 3.76639 -18.6805 -15.6373 -25.503 -0.406829 -7.51187 -88.1486 -50.957 81.6744 -14.7853 17.0976 -13.5115 3.60372 0.900105 -9.55144 0.0456608 -0.142036 -6.51331 -12.474 1.76853 -4.35927 -6.57915 1.81822 2.60372 
-160.287 96.3611 143.858 -101.582 -44.4923 -99.1687 -174.926 3.59641 90.6923 -29.8321 15.8096 -2.34816 76.6248 7.17732 -1.16209 10.9404 -3.48513 6.39335 167.421 16.0699 85.6438 -36.8045 0.430995 2.23421 64.8761 -3.26802 -0.339925 23.7117 -1.37053 3.96984 0.450758 8.26541 -90.1522 10.345 0.828306 -0.376093 -1.32573 0.810947 -0.412191 -23.863 0.90304 -0.109749 -3.85041 0.90304 -0.109752 89.5487 -29.8863 -107.694 39.346 -8.3568 0.715222 3.80563 -17.9142 -15.6199 -25.9802 -0.0602301 -8.99388 -87.1793 -51.4379 83.1971 -16.5515 16.8514 -2.47256 3.32196 -1.34883 -10.9092 0.0943386 -0.130077 -6.31591 -15.7563 -0.0444921 -6.24235 -4.11095 -0.0447887 -0.209611 
-156.801 95.7966 139.754 -102.853 -44.8481 -100.681 -176.104 6.11282 89.662 -29.8757 15.3076 -1.25556 76.7262 6.94448 -2.92716 7.75516 -4.94122 8.04388 165.61 9.71333 81.4147 -52.5329 -6.36901 0.79742 68.6829 -5.28698 -2.49763 25.3855 -1.91361 4.92666 0.903207 8.13149 -89.955 10.6127 1.81959 -0.0750914 -1.05695 1.81451 -0.155134 -23.6019 1.758 0.475424 -3.58922 1.75801 0.475415 89.0868 -29.4332 -108.797 37.7666 -6.92747 0.947263 1.96431 -18.4937 -17.8058 -26.6143 -0.129403 -8.74512 -86.1257 -52.0916 84.8475 -18.0559 17.7747 7.32771 2.97255 -1.53231 -12.9884 1.09736 -0.0991192 -4.64889 -18.921 -1.46045 -8.56421 -2.09118 -1.70277 -1.54631 
-153.242 94.8546 134.734 -104.708 -45.9885 -102.866 -176.111 10.1852 89.3168 -31.3412 16.8585 -1.08062 73.3612 5.85191 -2.50519 9.8175 -2.74211 5.65777 166.261 -0.0151931 78.8083 -58.08 -12.6743 -1.66866 66.9599 -4.18045 -1.81446 24.0799 -2.73217 6.80802 1.22388 8.11991 -89.7481 10.6329 2.55351 0.269063 -1.03551 2.56285 0.156331 -23.5882 2.35452 1.02446 -3.57557 2.35451 1.02447 89.4424 -29.3001 -108.144 36.5644 -4.96116 -1.40471 0.959814 -20.6311 -18.7757 -27.3979 -0.295563 -8.44855 -85.9699 -53.1917 85.2314 -21.1551 14.8966 11.9964 2.82545 -4.94294 -10.7499 1.5534 -0.0383863 -2.84873 -19.9415 -2.72028 -9.69091 -1.81236 -3.11353 -3.67015 
-148.773 93.912 128.323 -105.665 -45.5071 -103.177 -176.964 15.2052 89.6443 -31.7922 16.9856 0.0080825 67.2752 3.67414 -1.44484 11.0478 -1.47724 4.22125 169.067 -9.94311 80.6033 -49.9179 -22.4958 -5.11296 65.6942 -3.45252 -2.95574 28.4302 -2.8821 7.20151 1.62849 8.15034 -89.7319 10.573 3.36672 0.230474 -1.09359 3.37363 0.0818914 -23.6599 3.14168 1.23264 -3.64723 3.14169 1.23263 89.3599 -28.2164 -108.76 35.8647 -4.26534 -3.48139 0.150249 -20.8319 -20.4944 -26.5732 -0.119592 -9.47646 -85.5567 -56.1347 86.2038 -24.3578 12.5597 12.9326 2.3484 -11.9307 -10.1434 -0.38555 -0.0936106 -4.95123 -19.2616 -3.93299 -9.71315 -2.58276 -4.25043 -5.25609 
-142.471 92.4251 119.359 -104.461 -40.6658 -101.66 -177.89 19.3956 91.2312 -26.6598 13.4675 0.475558 60.7855 1.26316 -2.11633 14.8626 -3.42199 6.02643 171.891 -11.2898 82.1917 -41.6369 -24.7256 -7.77099 78.7153 -10.2867 -4.04728 42.4327 -3.41794 7.58713 2.25283 8.41885 -89.8201 10.0421 4.57151 -0.022454 -1.62073 4.56609 -0.224067 -24.2168 4.36646 1.3552 -4.20418 4.36647 1.3552 89.3311 -25.4868 -110.039 34.7504 -4.38821 -6.93821 -0.34104 -22.1053 -21.0488 -27.0546 -0.126477 -9.77054 -84.5628 -62.7888 88.2941 -22.1832 5.34843 10.2669 3.83554 -13.6785 -16.0722 -2.29061 -0.0969419 -6.51746 -14.8029 -4.36258 -5.27854 -3.0895 -4.29577 -7.94025 
-136.482 91.9828 110.193 -104.529 -42.1254 -100.779 -177.536 21.5729 93.4982 -19.8182 10.5254 -0.451504 61.6807 1.6304 -3.62669 19.1285 -2.43872 4.65735 172.051 -4.78157 84.5878 -42.6417 -23.7821 -4.96586 87.4168 -14.3957 -2.59938 30.6628 -2.11813 4.72004 1.82003 8.64204 -89.9573 9.59666 3.64784 -0.197011 -2.06924 3.63562 -0.357584 -24.6437 3.53818 0.909822 -4.63106 3.5382 0.909822 89.3023 -25.4055 -110.125 33.254 -5.80422 -9.34446 -0.187227 -23.6333 -21.3771 -27.5799 -0.325739 -9.14284 -85.5602 -64.3097 87.1559 -17.2441 4.99023 4.39508 4.14387 -13.3077 -16.9051 1.4215 -0.114641 -5.24479 -10.5936 -3.15214 -1.60128 -4.11384 -2.92632 -8.51011 
